<?xml version="1.0" standalone="no"?>
<!DOCTYPE svg PUBLIC "-//W3C//DTD SVG 20010904//EN"
 "http://www.w3.org/TR/2001/REC-SVG-20010904/DTD/svg10.dtd">
<svg version="1.0" xmlns="http://www.w3.org/2000/svg"
 width="330.000000pt" height="316.000000pt" viewBox="0 0 330.000000 316.000000"
 preserveAspectRatio="xMidYMid meet">

<g transform="translate(0.000000,316.000000) scale(0.100000,-0.100000)"
fill="#000000" stroke="none">
<path d="M935 2765 l-710 -393 -3 -789 -2 -788 706 -390 c388 -215 713 -390
722 -390 10 0 335 175 724 390 l708 390 -3 788 -2 789 -705 390 c-388 214
-709 391 -715 393 -5 2 -329 -173 -720 -390z m1032 117 l212 -117 -265 -3
c-145 -1 -384 -1 -530 0 l-267 3 264 146 264 146 55 -29 c30 -16 150 -81 267
-146z m-327 -381 l0 -169 -57 -7 c-193 -23 -362 -108 -486 -246 -31 -33 -59
-59 -64 -58 -54 24 -302 162 -299 167 2 4 65 114 141 245 l137 237 314 0 314
0 0 -169z m775 -53 c71 -123 137 -237 147 -254 l18 -31 -144 -91 -145 -91 -36
50 c-104 140 -288 255 -458 283 -37 6 -68 15 -67 19 0 4 0 81 0 172 l0 165
278 0 279 0 128 -222z m-1535 177 c0 -8 -550 -958 -561 -970 -5 -5 -9 129 -9
327 l0 337 278 154 c272 152 292 163 292 152z m1826 -151 l284 -156 0 -342 c0
-338 -1 -341 -19 -311 -10 17 -135 230 -276 475 -141 245 -263 455 -271 468
-8 12 -12 22 -8 22 4 0 134 -70 290 -156z m-894 -253 c303 -78 507 -340 508
-652 0 -186 -94 -385 -238 -505 -240 -198 -585 -204 -838 -12 -198 149 -297
437 -235 680 51 199 175 352 356 440 143 68 302 86 447 49z m-973 -197 c80
-43 148 -78 150 -80 2 -2 -8 -30 -22 -61 -78 -175 -86 -377 -21 -558 14 -38
28 -77 30 -85 4 -11 -38 -42 -138 -105 -79 -49 -146 -90 -150 -90 -8 0 -308
512 -308 526 0 11 301 529 307 529 3 0 72 -34 152 -76z m1924 -176 c74 -128
139 -243 146 -256 11 -20 -2 -47 -135 -277 -82 -140 -152 -255 -157 -255 -7 0
-242 165 -269 189 -4 3 4 37 18 74 55 154 55 339 -1 502 -15 42 -24 80 -20 83
15 16 261 170 272 171 6 1 72 -104 146 -231z m-2173 -823 c150 -259 275 -474
278 -479 5 -9 -16 2 -366 194 l-192 105 0 329 c0 181 2 327 4 325 2 -2 126
-215 276 -474z m2400 148 l0 -328 -192 -105 c-106 -58 -233 -127 -282 -154
l-90 -50 20 35 c11 19 136 235 279 482 142 246 260 447 262 447 1 0 3 -147 3
-327z m-545 -104 c69 -50 125 -97 123 -103 -2 -7 -66 -121 -143 -254 l-140
-242 -277 0 -278 0 0 180 0 180 26 0 c41 0 142 29 210 60 113 51 221 137 291
232 20 28 41 47 49 44 7 -3 69 -46 139 -97z m-1386 45 c14 -20 53 -61 87 -92
116 -106 240 -166 397 -191 l97 -15 0 -173 0 -173 -314 0 -313 0 -143 246
c-109 189 -139 249 -129 255 8 4 75 46 149 93 74 47 137 86 140 86 3 0 16 -16
29 -36z m841 -869 c-135 -74 -248 -135 -251 -135 -3 0 -115 61 -250 135 l-244
135 495 0 495 0 -245 -135z"/>
<path d="M1600 1916 c-168 -101 -309 -191 -314 -199 -16 -25 9 -67 38 -67 14
0 85 36 158 80 l133 80 3 -400 2 -400 50 0 50 0 0 430 0 431 61 37 c137 84
184 118 187 135 4 22 -25 57 -47 57 -9 -1 -153 -83 -321 -184z"/>
</g>
</svg>
